<svg id="visual" viewBox="0 0 900 100" width="900" height="100" xmlns="http://www.w3.org/2000/svg" xmlns:xlink="http://www.w3.org/1999/xlink" version="1.1"><path d="M0 8L41 8L41 44L82 44L82 28L123 28L123 13L164 13L164 60L205 60L205 24L245 24L245 60L286 60L286 11L327 11L327 22L368 22L368 39L409 39L409 46L450 46L450 18L491 18L491 54L532 54L532 63L573 63L573 14L614 14L614 15L655 15L655 8L695 8L695 48L736 48L736 26L777 26L777 35L818 35L818 59L859 59L859 14L900 14L900 46L900 101L900 101L859 101L859 101L818 101L818 101L777 101L777 101L736 101L736 101L695 101L695 101L655 101L655 101L614 101L614 101L573 101L573 101L532 101L532 101L491 101L491 101L450 101L450 101L409 101L409 101L368 101L368 101L327 101L327 101L286 101L286 101L245 101L245 101L205 101L205 101L164 101L164 101L123 101L123 101L82 101L82 101L41 101L41 101L0 101Z" fill="#39744d"></path><path d="M0 42L41 42L41 67L82 67L82 71L123 71L123 37L164 37L164 72L205 72L205 59L245 59L245 70L286 70L286 62L327 62L327 56L368 56L368 28L409 28L409 47L450 47L450 79L491 79L491 51L532 51L532 55L573 55L573 55L614 55L614 25L655 25L655 56L695 56L695 42L736 42L736 76L777 76L777 51L818 51L818 42L859 42L859 28L900 28L900 55L900 101L900 101L859 101L859 101L818 101L818 101L777 101L777 101L736 101L736 101L695 101L695 101L655 101L655 101L614 101L614 101L573 101L573 101L532 101L532 101L491 101L491 101L450 101L450 101L409 101L409 101L368 101L368 101L327 101L327 101L286 101L286 101L245 101L245 101L205 101L205 101L164 101L164 101L123 101L123 101L82 101L82 101L41 101L41 101L0 101Z" fill="#003e1c"></path><path d="M0 99L41 99L41 63L82 63L82 86L123 86L123 63L164 63L164 97L205 97L205 80L245 80L245 72L286 72L286 61L327 61L327 68L368 68L368 96L409 96L409 92L450 92L450 90L491 90L491 52L532 52L532 96L573 96L573 83L614 83L614 71L655 71L655 89L695 89L695 93L736 93L736 62L777 62L777 69L818 69L818 83L859 83L859 68L900 68L900 90L900 101L900 101L859 101L859 101L818 101L818 101L777 101L777 101L736 101L736 101L695 101L695 101L655 101L655 101L614 101L614 101L573 101L573 101L532 101L532 101L491 101L491 101L450 101L450 101L409 101L409 101L368 101L368 101L327 101L327 101L286 101L286 101L245 101L245 101L205 101L205 101L164 101L164 101L123 101L123 101L82 101L82 101L41 101L41 101L0 101Z" fill="#000000"></path></svg>