<svg id="visual" viewBox="0 0 900 280" width="900" height="280" xmlns="http://www.w3.org/2000/svg" xmlns:xlink="http://www.w3.org/1999/xlink" version="1.1"><rect x="0" y="0" width="900" height="280" fill="#000000"></rect><path d="M0 201L39 201L39 192L78 192L78 147L117 147L117 174L157 174L157 123L196 123L196 182L235 182L235 222L274 222L274 157L313 157L313 195L352 195L352 221L391 221L391 117L430 117L430 212L470 212L470 117L509 117L509 95L548 95L548 213L587 213L587 113L626 113L626 213L665 213L665 206L704 206L704 197L743 197L743 213L783 213L783 130L822 130L822 154L861 154L861 121L900 121L900 181L900 281L900 281L861 281L861 281L822 281L822 281L783 281L783 281L743 281L743 281L704 281L704 281L665 281L665 281L626 281L626 281L587 281L587 281L548 281L548 281L509 281L509 281L470 281L470 281L430 281L430 281L391 281L391 281L352 281L352 281L313 281L313 281L274 281L274 281L235 281L235 281L196 281L196 281L157 281L157 281L117 281L117 281L78 281L78 281L39 281L39 281L0 281Z" fill="#39744d"></path><path d="M0 182L39 182L39 163L78 163L78 224L117 224L117 236L157 236L157 162L196 162L196 218L235 218L235 129L274 129L274 206L313 206L313 178L352 178L352 145L391 145L391 229L430 229L430 129L470 129L470 167L509 167L509 233L548 233L548 212L587 212L587 184L626 184L626 193L665 193L665 217L704 217L704 233L743 233L743 143L783 143L783 219L822 219L822 210L861 210L861 173L900 173L900 176L900 281L900 281L861 281L861 281L822 281L822 281L783 281L783 281L743 281L743 281L704 281L704 281L665 281L665 281L626 281L626 281L587 281L587 281L548 281L548 281L509 281L509 281L470 281L470 281L430 281L430 281L391 281L391 281L352 281L352 281L313 281L313 281L274 281L274 281L235 281L235 281L196 281L196 281L157 281L157 281L117 281L117 281L78 281L78 281L39 281L39 281L0 281Z" fill="#154f2c"></path><path d="M0 169L39 169L39 254L78 254L78 228L117 228L117 171L157 171L157 198L196 198L196 185L235 185L235 234L274 234L274 169L313 169L313 249L352 249L352 202L391 202L391 198L430 198L430 186L470 186L470 210L509 210L509 207L548 207L548 171L587 171L587 251L626 251L626 233L665 233L665 205L704 205L704 210L743 210L743 247L783 247L783 193L822 193L822 229L861 229L861 213L900 213L900 226L900 281L900 281L861 281L861 281L822 281L822 281L783 281L783 281L743 281L743 281L704 281L704 281L665 281L665 281L626 281L626 281L587 281L587 281L548 281L548 281L509 281L509 281L470 281L470 281L430 281L430 281L391 281L391 281L352 281L352 281L313 281L313 281L274 281L274 281L235 281L235 281L196 281L196 281L157 281L157 281L117 281L117 281L78 281L78 281L39 281L39 281L0 281Z" fill="#002d0c"></path><path d="M0 222L39 222L39 226L78 226L78 236L117 236L117 245L157 245L157 214L196 214L196 235L235 235L235 243L274 243L274 260L313 260L313 235L352 235L352 224L391 224L391 221L430 221L430 261L470 261L470 250L509 250L509 232L548 232L548 217L587 217L587 230L626 230L626 241L665 241L665 234L704 234L704 275L743 275L743 222L783 222L783 260L822 260L822 208L861 208L861 217L900 217L900 228L900 281L900 281L861 281L861 281L822 281L822 281L783 281L783 281L743 281L743 281L704 281L704 281L665 281L665 281L626 281L626 281L587 281L587 281L548 281L548 281L509 281L509 281L470 281L470 281L430 281L430 281L391 281L391 281L352 281L352 281L313 281L313 281L274 281L274 281L235 281L235 281L196 281L196 281L157 281L157 281L117 281L117 281L78 281L78 281L39 281L39 281L0 281Z" fill="#000000"></path></svg>