<svg id="visual" viewBox="0 0 900 100" width="900" height="100" xmlns="http://www.w3.org/2000/svg" xmlns:xlink="http://www.w3.org/1999/xlink" version="1.1"><path d="M0 87L41 87L41 53L82 53L82 40L123 40L123 48L164 48L164 94L205 94L205 98L245 98L245 71L286 71L286 79L327 79L327 61L368 61L368 55L409 55L409 56L450 56L450 86L491 86L491 71L532 71L532 95L573 95L573 49L614 49L614 97L655 97L655 53L695 53L695 63L736 63L736 53L777 53L777 34L818 34L818 69L859 69L859 79L900 79L900 57L900 0L900 0L859 0L859 0L818 0L818 0L777 0L777 0L736 0L736 0L695 0L695 0L655 0L655 0L614 0L614 0L573 0L573 0L532 0L532 0L491 0L491 0L450 0L450 0L409 0L409 0L368 0L368 0L327 0L327 0L286 0L286 0L245 0L245 0L205 0L205 0L164 0L164 0L123 0L123 0L82 0L82 0L41 0L41 0L0 0Z" fill="#39744d"></path><path d="M0 38L41 38L41 22L82 22L82 59L123 59L123 21L164 21L164 47L205 47L205 39L245 39L245 26L286 26L286 59L327 59L327 54L368 54L368 24L409 24L409 28L450 28L450 73L491 73L491 43L532 43L532 19L573 19L573 41L614 41L614 62L655 62L655 46L695 46L695 41L736 41L736 67L777 67L777 48L818 48L818 40L859 40L859 36L900 36L900 38L900 0L900 0L859 0L859 0L818 0L818 0L777 0L777 0L736 0L736 0L695 0L695 0L655 0L655 0L614 0L614 0L573 0L573 0L532 0L532 0L491 0L491 0L450 0L450 0L409 0L409 0L368 0L368 0L327 0L327 0L286 0L286 0L245 0L245 0L205 0L205 0L164 0L164 0L123 0L123 0L82 0L82 0L41 0L41 0L0 0Z" fill="#003e1c"></path><path d="M0 14L41 14L41 1L82 1L82 19L123 19L123 14L164 14L164 38L205 38L205 13L245 13L245 37L286 37L286 31L327 31L327 37L368 37L368 41L409 41L409 28L450 28L450 37L491 37L491 34L532 34L532 11L573 11L573 46L614 46L614 1L655 1L655 33L695 33L695 36L736 36L736 19L777 19L777 5L818 5L818 19L859 19L859 19L900 19L900 20L900 0L900 0L859 0L859 0L818 0L818 0L777 0L777 0L736 0L736 0L695 0L695 0L655 0L655 0L614 0L614 0L573 0L573 0L532 0L532 0L491 0L491 0L450 0L450 0L409 0L409 0L368 0L368 0L327 0L327 0L286 0L286 0L245 0L245 0L205 0L205 0L164 0L164 0L123 0L123 0L82 0L82 0L41 0L41 0L0 0Z" fill="#000000"></path></svg>