<svg id="visual" viewBox="0 0 900 280" width="900" height="280" xmlns="http://www.w3.org/2000/svg" xmlns:xlink="http://www.w3.org/1999/xlink" version="1.1">
    <rect x="0" y="0" width="900" height="280" fill="#000000"></rect>
    <path d="M0 77L39 77L39 86L78 86L78 131L117 131L117 104L157 104L157 155L196 155L196 96L235 96L235 56L274 56L274 121L313 121L313 83L352 83L352 57L391 57L391 161L430 161L430 66L470 66L470 161L509 161L509 183L548 183L548 65L587 65L587 165L626 165L626 65L665 65L665 72L704 72L704 81L743 81L743 65L783 65L783 148L822 148L822 124L861 124L861 157L900 157L900 97L900 0L900 0L861 0L861 0L822 0L822 0L783 0L783 0L743 0L743 0L704 0L704 0L665 0L665 0L626 0L626 0L587 0L587 0L548 0L548 0L509 0L509 0L470 0L470 0L430 0L430 0L391 0L391 0L352 0L352 0L313 0L313 0L274 0L274 0L235 0L235 0L196 0L196 0L157 0L157 0L117 0L117 0L78 0L78 0L39 0L39 0L0 0Z" fill="#39744d"></path>
    <path d="M0 96L39 96L39 115L78 115L78 54L117 54L117 42L157 42L157 116L196 116L196 60L235 60L235 149L274 149L274 72L313 72L313 100L352 100L352 133L391 133L391 49L430 49L430 149L470 149L470 111L509 111L509 45L548 45L548 66L587 66L587 94L626 94L626 85L665 85L665 61L704 61L704 45L743 45L743 135L783 135L783 59L822 59L822 68L861 68L861 105L900 105L900 102L900 0L900 0L861 0L861 0L822 0L822 0L783 0L783 0L743 0L743 0L704 0L704 0L665 0L665 0L626 0L626 0L587 0L587 0L548 0L548 0L509 0L509 0L470 0L470 0L430 0L430 0L391 0L391 0L352 0L352 0L313 0L313 0L274 0L274 0L235 0L235 0L196 0L196 0L157 0L157 0L117 0L117 0L78 0L78 0L39 0L39 0L0 0Z" fill="#154f2c"></path>
    <path d="M0 109L39 109L39 24L78 24L78 50L117 50L117 107L157 107L157 80L196 80L196 93L235 93L235 44L274 44L274 109L313 109L313 29L352 29L352 76L391 76L391 80L430 80L430 92L470 92L470 68L509 68L509 71L548 71L548 107L587 107L587 27L626 27L626 45L665 45L665 73L704 73L704 68L743 68L743 31L783 31L783 85L822 85L822 49L861 49L861 65L900 65L900 52L900 0L900 0L861 0L861 0L822 0L822 0L783 0L783 0L743 0L743 0L704 0L704 0L665 0L665 0L626 0L626 0L587 0L587 0L548 0L548 0L509 0L509 0L470 0L470 0L430 0L430 0L391 0L391 0L352 0L352 0L313 0L313 0L274 0L274 0L235 0L235 0L196 0L196 0L157 0L157 0L117 0L117 0L78 0L78 0L39 0L39 0L0 0Z" fill="#002d0c"></path>
    <path d="M0 56L39 56L39 52L78 52L78 42L117 42L117 33L157 33L157 64L196 64L196 43L235 43L235 35L274 35L274 18L313 18L313 43L352 43L352 54L391 54L391 57L430 57L430 17L470 17L470 28L509 28L509 46L548 46L548 61L587 61L587 48L626 48L626 37L665 37L665 44L704 44L704 3L743 3L743 56L783 56L783 18L822 18L822 70L861 70L861 61L900 61L900 50L900 0L900 0L861 0L861 0L822 0L822 0L783 0L783 0L743 0L743 0L704 0L704 0L665 0L665 0L626 0L626 0L587 0L587 0L548 0L548 0L509 0L509 0L470 0L470 0L430 0L430 0L391 0L391 0L352 0L352 0L313 0L313 0L274 0L274 0L235 0L235 0L196 0L196 0L157 0L157 0L117 0L117 0L78 0L78 0L39 0L39 0L0 0Z" fill="#000000"></path>
</svg>