<svg id="visual" viewBox="0 0 900 100" width="900" height="100" xmlns="http://www.w3.org/2000/svg" xmlns:xlink="http://www.w3.org/1999/xlink" version="1.1"><path d="M0 20L41 20L41 52L82 52L82 27L123 27L123 17L164 17L164 61L205 61L205 26L245 26L245 43L286 43L286 20L327 20L327 63L368 63L368 14L409 14L409 39L450 39L450 4L491 4L491 39L532 39L532 35L573 35L573 45L614 45L614 28L655 28L655 0L695 0L695 65L736 65L736 15L777 15L777 23L818 23L818 27L859 27L859 57L900 57L900 37L900 101L900 101L859 101L859 101L818 101L818 101L777 101L777 101L736 101L736 101L695 101L695 101L655 101L655 101L614 101L614 101L573 101L573 101L532 101L532 101L491 101L491 101L450 101L450 101L409 101L409 101L368 101L368 101L327 101L327 101L286 101L286 101L245 101L245 101L205 101L205 101L164 101L164 101L123 101L123 101L82 101L82 101L41 101L41 101L0 101Z" fill="#39744d"></path><path d="M0 87L41 87L41 57L82 57L82 88L123 88L123 74L164 74L164 92L205 92L205 80L245 80L245 77L286 77L286 34L327 34L327 48L368 48L368 65L409 65L409 95L450 95L450 84L491 84L491 93L532 93L532 99L573 99L573 38L614 38L614 79L655 79L655 86L695 86L695 84L736 84L736 68L777 68L777 96L818 96L818 95L859 95L859 70L900 70L900 92L900 101L900 101L859 101L859 101L818 101L818 101L777 101L777 101L736 101L736 101L695 101L695 101L655 101L655 101L614 101L614 101L573 101L573 101L532 101L532 101L491 101L491 101L450 101L450 101L409 101L409 101L368 101L368 101L327 101L327 101L286 101L286 101L245 101L245 101L205 101L205 101L164 101L164 101L123 101L123 101L82 101L82 101L41 101L41 101L0 101Z" fill="#000000"></path></svg>