<svg id="visual" viewBox="0 0 900 100" width="900" height="100" xmlns="http://www.w3.org/2000/svg" xmlns:xlink="http://www.w3.org/1999/xlink" version="1.1"><path d="M0 78L41 78L41 46L82 46L82 71L123 71L123 81L164 81L164 37L205 37L205 72L245 72L245 55L286 55L286 78L327 78L327 35L368 35L368 84L409 84L409 59L450 59L450 94L491 94L491 59L532 59L532 63L573 63L573 53L614 53L614 70L655 70L655 98L695 98L695 33L736 33L736 83L777 83L777 75L818 75L818 71L859 71L859 41L900 41L900 61L900 0L900 0L859 0L859 0L818 0L818 0L777 0L777 0L736 0L736 0L695 0L695 0L655 0L655 0L614 0L614 0L573 0L573 0L532 0L532 0L491 0L491 0L450 0L450 0L409 0L409 0L368 0L368 0L327 0L327 0L286 0L286 0L245 0L245 0L205 0L205 0L164 0L164 0L123 0L123 0L82 0L82 0L41 0L41 0L0 0Z" fill="#39744d"></path><path d="M0 11L41 11L41 41L82 41L82 10L123 10L123 24L164 24L164 6L205 6L205 18L245 18L245 21L286 21L286 64L327 64L327 50L368 50L368 33L409 33L409 3L450 3L450 14L491 14L491 5L532 5L532 0L573 0L573 60L614 60L614 19L655 19L655 12L695 12L695 14L736 14L736 30L777 30L777 2L818 2L818 3L859 3L859 28L900 28L900 6L900 0L900 0L859 0L859 0L818 0L818 0L777 0L777 0L736 0L736 0L695 0L695 0L655 0L655 0L614 0L614 0L573 0L573 0L532 0L532 0L491 0L491 0L450 0L450 0L409 0L409 0L368 0L368 0L327 0L327 0L286 0L286 0L245 0L245 0L205 0L205 0L164 0L164 0L123 0L123 0L82 0L82 0L41 0L41 0L0 0Z" fill="#000000"></path></svg>